<svg width="300" height="300" viewBox="0 0 300 300" fill="none" xmlns="http://www.w3.org/2000/svg">
<path d="M107.146 278C130.401 278 149.274 258.885 149.274 235.333V192.666H107.146C83.891 192.666 65.0176 211.781 65.0176 235.333C65.0176 258.885 83.891 278 107.146 278Z" fill="#0ACF83"/>
<path d="M65.0176 150.001C65.0176 126.449 83.891 107.334 107.146 107.334H149.274V192.667H107.146C83.891 192.667 65.0176 173.552 65.0176 150.001Z" fill="#A259FF"/>
<path d="M65.0176 64.6668C65.0176 41.1147 83.891 22 107.146 22H149.274V107.333H107.146C83.891 107.333 65.0176 88.2188 65.0176 64.6668Z" fill="#F24E1E"/>
<path d="M149.272 22H191.401C214.656 22 233.529 41.1147 233.529 64.6668C233.529 88.2188 214.656 107.333 191.401 107.333H149.272V22Z" fill="#FF7262"/>
<path d="M233.529 150.001C233.529 173.552 214.656 192.667 191.401 192.667C168.146 192.667 149.272 173.552 149.272 150.001C149.272 126.449 168.146 107.334 191.401 107.334C214.656 107.334 233.529 126.449 233.529 150.001Z" fill="#1ABCFE"/>
</svg>
