<svg xmlns="http://www.w3.org/2000/svg" width="250" height="250" viewBox="0 0 250 250"><g transform="translate(-1989 -1617.11)"><circle cx="124" cy="124" r="124" transform="translate(1990 1618)" fill="#fff"/><path d="M117.313.392c-.538.049-2.248.22-3.788.342-35.508,3.2-68.768,22.357-89.834,51.8A123.72,123.72,0,0,0,1.624,107.146C.622,114.012.5,116.04.5,125.349s.122,11.338,1.124,18.2A125.506,125.506,0,0,0,87.132,244.54a132.174,132.174,0,0,0,26.393,5.473,230.278,230.278,0,0,0,23.949,0,126.222,126.222,0,0,0,45.039-13.17c2.151-1.1,2.566-1.393,2.273-1.637-.2-.147-9.36-12.437-20.357-27.293l-19.99-27-25.049-37.067C105.608,123.468,94.268,106.8,94.171,106.8c-.1-.024-.2,16.444-.244,36.554-.073,35.21-.1,36.627-.538,37.458a4.441,4.441,0,0,1-2.151,2.224c-.782.391-1.466.464-5.156.464H81.854l-1.124-.709a4.569,4.569,0,0,1-1.637-1.784l-.513-1.1.049-48.991L78.7,81.9l.758-.953a6.7,6.7,0,0,1,1.808-1.491c1-.489,1.393-.538,5.621-.538,4.985,0,5.816.2,7.111,1.613.367.391,13.93,20.818,30.156,45.423s38.416,58.2,49.316,74.7l19.795,29.981,1-.66a128.316,128.316,0,0,0,25.684-22.528,124.419,124.419,0,0,0,29.423-63.9c1-6.866,1.124-8.894,1.124-18.2s-.122-11.338-1.124-18.2A125.506,125.506,0,0,0,163.868,6.158,131.253,131.253,0,0,0,137.841.709C135.5.465,119.342.2,117.313.392Zm51.173,75.6a4.931,4.931,0,0,1,2.468,2.883c.2.635.244,14.221.2,44.837l-.073,43.933L163.33,155.77l-7.771-11.875V111.959c0-20.647.1-32.253.244-32.815a4.985,4.985,0,0,1,2.419-3.079c1-.513,1.369-.562,5.205-.562,3.617,0,4.252.049,5.059.489Z" transform="translate(1988.5 1616.786)"/></g></svg>