<svg width="300" height="300" viewBox="0 0 300 300" fill="none" xmlns="http://www.w3.org/2000/svg">
<rect width="300" height="300" fill="#CC6699"/>
<path d="M250.316 165.014C240.596 165.069 232.179 167.41 225.12 170.896C222.513 165.722 219.907 161.201 219.473 157.825C218.984 153.904 218.387 151.507 218.984 146.824C219.581 142.139 222.296 135.495 222.296 134.95C222.241 134.46 221.698 132.064 216.106 132.009C210.513 131.955 205.68 133.099 205.137 134.569C204.594 136.04 203.508 139.416 202.802 142.902C201.824 148.021 191.616 166.157 185.805 175.688C183.905 171.985 182.276 168.717 181.949 166.102C181.461 162.182 180.863 159.785 181.461 155.101C182.059 150.417 184.774 143.773 184.774 143.229C184.719 142.738 184.176 140.342 178.584 140.288C172.99 140.233 168.158 141.377 167.615 142.847C167.072 144.318 166.475 147.803 165.28 151.18C164.139 154.557 150.564 184.838 147.034 192.735C145.242 196.765 143.668 199.979 142.527 202.157C141.387 204.336 142.473 202.321 142.364 202.538C141.387 204.39 140.844 205.425 140.844 205.425V205.48C140.083 206.842 139.269 208.148 138.888 208.148C138.617 208.148 138.074 204.499 138.997 199.489C141.006 188.977 145.893 172.585 145.839 171.985C145.839 171.713 146.762 168.826 142.689 167.356C138.725 165.886 137.314 168.336 136.988 168.336C136.662 168.336 136.39 169.208 136.39 169.208C136.39 169.208 140.789 150.746 127.974 150.746C119.937 150.746 108.859 159.514 103.375 167.52C99.8997 169.426 92.5147 173.456 84.6953 177.759C81.7087 179.393 78.6135 181.136 75.6812 182.715L75.0844 182.06C59.5542 165.449 30.8286 153.685 32.0232 131.356C32.4576 123.241 35.2813 101.837 87.1942 75.9127C129.712 54.6722 163.76 60.4998 169.678 73.4619C178.095 91.9792 151.487 126.4 107.286 131.356C90.4523 133.262 81.6006 126.726 79.3748 124.276C77.0398 121.716 76.714 121.607 75.8452 122.097C74.4333 122.86 75.3022 125.147 75.8452 126.509C77.1484 129.94 82.5786 136.04 91.8099 139.089C99.9003 141.758 119.667 143.229 143.559 133.97C170.33 123.568 191.236 94.7023 185.1 70.5754C178.855 46.0127 138.238 37.9522 99.8465 51.6223C76.985 59.7917 52.2234 72.536 34.4125 89.2561C13.2349 109.08 9.86817 126.4 11.28 133.589C16.222 159.241 51.4632 175.961 65.5816 188.324C64.8757 188.704 64.2241 189.086 63.6268 189.413C56.5676 192.898 29.6883 207.004 22.9549 221.927C15.3526 238.81 24.1495 250.956 30.0141 252.59C48.1508 257.655 66.722 248.559 76.7678 233.582C86.7587 218.605 85.5646 199.162 80.949 190.284L80.7855 189.958L86.3243 186.69C89.9088 184.566 93.4384 182.605 96.533 180.916C94.7959 185.654 93.5464 191.264 92.8953 199.434C92.1351 209.02 96.0448 221.436 101.203 226.338C103.484 228.462 106.199 228.517 107.883 228.517C113.856 228.517 116.571 223.56 119.557 217.624C123.25 210.381 126.508 201.993 126.508 201.993C126.508 201.993 122.435 224.704 133.567 224.704C137.64 224.704 141.713 219.421 143.559 216.698V216.753C143.559 216.753 143.667 216.589 143.885 216.208C144.112 215.87 144.33 215.525 144.536 215.174V215.065C146.165 212.233 149.803 205.752 155.234 195.023C162.238 181.189 168.972 163.87 168.972 163.87C168.972 163.87 169.624 168.118 171.633 175.089C172.827 179.229 175.433 183.749 177.442 188.16C175.813 190.448 174.836 191.755 174.836 191.755L174.89 191.81C173.588 193.553 172.121 195.405 170.601 197.256C165.062 203.901 158.437 211.471 157.569 213.65C156.537 216.209 156.754 218.115 158.763 219.641C160.229 220.73 162.836 220.947 165.605 220.73C170.601 220.403 174.076 219.151 175.814 218.388C178.529 217.407 181.624 215.937 184.611 213.758C190.041 209.729 193.353 204.01 193.028 196.385C192.865 192.192 191.507 188.052 189.824 184.131C190.312 183.423 190.802 182.715 191.29 181.953C199.87 169.371 206.494 155.538 206.494 155.538C206.494 155.538 207.146 159.786 209.155 166.758C210.186 170.298 212.25 174.165 214.097 177.977C206.06 184.567 201.01 192.192 199.272 197.203C196.068 206.461 198.566 210.655 203.291 211.635C205.408 212.071 208.449 211.091 210.729 210.11C213.553 209.185 216.974 207.605 220.124 205.263C225.554 201.233 230.767 195.623 230.496 188.053C230.333 184.567 229.41 181.136 228.161 177.869C235.003 175.036 243.853 173.403 255.094 174.764C279.259 177.596 284.037 192.737 283.114 199.055C282.191 205.373 277.141 208.858 275.457 209.947C273.774 210.982 273.231 211.364 273.394 212.126C273.611 213.27 274.371 213.215 275.838 212.998C277.847 212.67 288.544 207.824 288.978 196.169C289.63 181.19 275.457 164.851 250.316 165.014V165.014ZM63.9526 228.027C55.9702 236.796 44.7298 240.118 39.9513 237.286C34.7926 234.29 36.8012 221.383 46.6304 212.069C52.6035 206.405 60.3687 201.177 65.473 197.964C66.6134 197.256 68.351 196.221 70.4145 194.968C70.7403 194.751 70.9575 194.641 70.9575 194.641C71.3376 194.424 71.772 194.151 72.2064 193.879C75.8446 207.168 72.3693 218.823 63.9526 228.027V228.027ZM122.327 188.215C119.557 195.023 113.693 212.505 110.163 211.525C107.122 210.708 105.276 197.473 109.565 184.402C111.737 177.812 116.353 169.97 119.068 166.919C123.467 162.018 128.245 160.384 129.44 162.399C130.852 165.014 124.064 183.967 122.327 188.215ZM170.492 211.307C169.298 211.907 168.212 212.342 167.723 212.016C167.343 211.798 168.211 210.981 168.211 210.981C168.211 210.981 174.239 204.5 176.628 201.504C177.985 199.762 179.614 197.747 181.352 195.459V196.112C181.353 203.955 173.859 209.183 170.492 211.307ZM207.634 202.811C206.765 202.157 206.874 200.142 209.806 193.824C210.947 191.319 213.553 187.126 218.06 183.15C218.603 184.784 218.929 186.363 218.875 187.834C218.821 197.637 211.87 201.286 207.634 202.811Z" fill="white"/>
</svg>
