<svg xmlns="http://www.w3.org/2000/svg" width="250" height="250" viewBox="0 0 250 250"><g transform="translate(-1476 -814)"><g transform="translate(1476 814)" fill="#fff" stroke="#707070" stroke-width="1"><rect width="250" height="250" stroke="none"/><rect x="0.5" y="0.5" width="249" height="249" fill="none"/></g><path d="M0,125V250H250V0H0Zm201.466-9.961a31.135,31.135,0,0,1,15.636,9.008c2.3,2.461,5.715,6.945,5.992,8.015.078.313-10.793,7.617-17.382,11.707-.234.156-1.191-.871-2.266-2.461-3.215-4.687-6.586-6.707-11.746-7.062-7.578-.516-12.5,3.453-12.421,10.078a9.166,9.166,0,0,0,1.07,4.687c1.668,3.453,4.765,5.515,14.484,9.726,17.9,7.7,25.554,12.773,30.312,20,5.312,8.054,6.508,20.913,2.9,30.476-3.969,10.4-13.808,17.46-27.655,19.8-4.285.754-14.445.637-19.046-.2-10.039-1.785-19.562-6.746-25.437-13.253-2.3-2.539-6.785-9.168-6.508-9.648a18.984,18.984,0,0,1,2.3-1.469l9.285-5.351,7.187-4.168,1.508,2.226c2.1,3.215,6.707,7.617,9.484,9.086,7.976,4.207,18.929,3.609,24.323-1.23a10.868,10.868,0,0,0,1.391-13.847c-1.945-2.773-5.914-5.117-17.187-10-12.9-5.555-18.453-9.008-23.531-14.484a32.987,32.987,0,0,1-6.867-12.5c-.953-3.531-1.191-12.382-.437-15.953,2.656-12.5,12.062-21.152,25.636-23.73,4.406-.832,14.648-.516,18.968.555Zm-58.69,10.429.078,10.234H110.317v92.458H87.3V135.7H54.764V125.666l.273-10.312c.117-.156,19.921-.234,43.928-.2l43.69.117Z" transform="translate(1476 814.002)" fill="#007acc"/></g></svg>